<svg width="180" height="180" viewBox="0 0 180 180" fill="none" xmlns="http://www.w3.org/2000/svg">
  <rect width="180" height="180" rx="42" fill="#00739A"/>
  <path
    d="M90 130C87.6 130 85.4 129.1 83.7 127.4L50.9 95.5C39.1 84 38.7 65 50 53.1C61.1 41.4 79.6 40.9 91.3 51.6C103 40.9 121.5 41.4 132.6 53.1C143.9 65 143.5 84 131.7 95.5L98.9 127.4C97.2 129.1 94.9 130 92.6 130H90Z"
    fill="white"
    opacity="0.98"
  />
  <path
    d="M91.3 119.7L58.5 87.8C51 80.5 50.8 68.5 58 60.9C65.2 53.3 77.2 53.1 84.7 60.3L91.3 66.6L97.9 60.3C105.4 53.1 117.4 53.3 124.6 60.9C131.8 68.5 131.6 80.5 124.1 87.8L91.3 119.7Z"
    fill="#00739A"
  />
  <path
    d="M49 90H68.8L76.2 76.2L88.6 105.8L100 82.5L107.3 90H132"
    stroke="white"
    stroke-width="10"
    stroke-linecap="round"
    stroke-linejoin="round"
  />
</svg>
